<?xml version="1.0" encoding="UTF-8"?>
<!DOCTYPE svg PUBLIC "-//W3C//DTD SVG 1.1//EN" "http://www.w3.org/Graphics/SVG/1.1/DTD/svg11.dtd">
<!-- Creator: CorelDRAW 2021 (64-Bit) -->
<svg xmlns="http://www.w3.org/2000/svg" xml:space="preserve" width="1322px" height="285px" version="1.1" style="shape-rendering:geometricPrecision; text-rendering:geometricPrecision; image-rendering:optimizeQuality; fill-rule:evenodd; clip-rule:evenodd"
viewBox="0 0 212.27 45.76"
 xmlns:xlink="http://www.w3.org/1999/xlink"
 xmlns:xodm="http://www.corel.com/coreldraw/odm/2003">
 <defs>
  <style type="text/css">
   <![CDATA[
    .fil1 {fill:black}
    .fil0 {fill:black;fill-rule:nonzero}
   ]]>
  </style>
 </defs>
 <g id="Vrstva_x0020_1">
  <metadata id="CorelCorpID_0Corel-Layer"/>
  <g id="_2853559834720">
   <path class="fil0" d="M71 34.19c6.74,0 10.78,-2.7 10.78,-6.78 0,-3.61 -2.17,-5.57 -8,-6.22l-4.65 -0.57c-2.87,-0.35 -3.48,-0.83 -3.48,-1.96 0,-1.39 0.82,-1.95 4.09,-1.95 4,0 4.87,0.91 4.87,2.69l0 0.26 6.52 0 0 -0.13c0,-5.3 -4.04,-8 -11.18,-8 -7.48,0 -10.74,3.04 -10.74,6.87 0,3.66 2.44,5.61 6.79,6.09l6.13 0.74c2.56,0.35 3.22,0.7 3.22,1.91 0,1.31 -0.83,1.88 -4.31,1.88 -3.7,0 -4.91,-0.53 -4.91,-2.48l0 -0.4 -6.53 0 0 0.13c0,5.05 4.05,7.92 11.4,7.92zm17.61 6.96c5.48,0 8.4,-1.26 10.49,-5.83l10.78 -23.35 -7.26 0 -4.13 9.91 -1.74 5.18 -0.44 0 -1.82 -5.13 -4.62 -9.96 -7.39 0 10.66 21.87c-0.44,0.96 -1.13,1.39 -2.74,1.39l-5.35 0 0 5.92 3.56 0zm33.84 -6.96c6.74,0 10.79,-2.7 10.79,-6.78 0,-3.61 -2.18,-5.57 -8,-6.22l-4.66 -0.57c-2.87,-0.35 -3.48,-0.83 -3.48,-1.96 0,-1.39 0.83,-1.95 4.09,-1.95 4,0 4.87,0.91 4.87,2.69l0 0.26 6.53 0 0 -0.13c0,-5.3 -4.05,-8 -11.18,-8 -7.48,0 -10.74,3.04 -10.74,6.87 0,3.66 2.43,5.61 6.78,6.09l6.13 0.74c2.57,0.35 3.22,0.7 3.22,1.91 0,1.31 -0.82,1.88 -4.3,1.88 -3.7,0 -4.92,-0.53 -4.92,-2.48l0 -0.4 -6.52 0 0 0.13c0,5.05 4.04,7.92 11.39,7.92zm28.8 -0.43l0 -5.88 -3.92 0c-2.3,0 -3.13,-0.56 -3.13,-2.74l0 -7.78 7.05 0 0 -5.39 -7.05 0 0 -4.22 -6.52 0 0 4.22 -3.44 0 0 5.39 3.44 0 0 8.52c0,5.48 3.08,7.88 8.17,7.88l5.4 0zm8.96 0l0 -12.62c0,-2.74 1.04,-4.09 3.95,-4.09 2.66,0 3.62,1.05 3.62,3.44l0 2.26 6.52 0 0 -3.61c0,-4.26 -2,-7.61 -6.87,-7.61 -4.4,0 -6.7,2.7 -7.31,6.22l-0.39 0 0 -5.78 -6.05 0 0 21.79 6.53 0zm22.96 -24.01l0 -5.14 -6.52 0 0 5.14 6.52 0zm0 24.01l0 -21.79 -6.52 0 0 21.79 6.52 0zm9.4 0l5.61 -7.31 0.35 0 5.78 7.31 7.96 0 -8.7 -10.75 0 -0.39 8.7 -10.65 -7.87 0 -5.61 7.35 -0.35 0 -5.79 -7.35 -7.96 0 8.7 10.78 0 0.35 -8.7 10.66 7.88 0z"/>
   <g>
    <path class="fil1" d="M7.63 0l38.13 0 0 11.44 -45.76 0 0 -3.81c0,-4.2 3.43,-7.63 7.63,-7.63z"/>
    <path class="fil1" d="M0 11.44l22.88 11.44 0 11.44 -16.06 -8.04c-3.75,-1.88 -6.82,-7.25 -6.82,-11.95l0 -2.89z"/>
    <path class="fil1" d="M45.76 34.32l-22.88 -11.44 0 -11.44 16.06 8.05c3.76,1.87 6.82,7.25 6.82,11.94l0 2.89z"/>
    <path class="fil1" d="M0 34.32l45.76 0 0 3.82c0,4.19 -3.43,7.62 -7.62,7.62l-38.14 0 0 -11.44z"/>
    <path class="fil1" d="M0 34.32l45.76 0 0 3.82c0,4.19 -3.43,7.62 -7.62,7.62l-38.14 0 0 -11.44z"/>
   </g>
  </g>
 </g>
</svg>
