<?xml version="1.0" encoding="UTF-8"?>
<!DOCTYPE svg PUBLIC "-//W3C//DTD SVG 1.1//EN" "http://www.w3.org/Graphics/SVG/1.1/DTD/svg11.dtd">
<!-- Creator: CorelDRAW 2021 (64-Bit) -->
<svg xmlns="http://www.w3.org/2000/svg" xml:space="preserve" width="1322px" height="285px" version="1.1" style="shape-rendering:geometricPrecision; text-rendering:geometricPrecision; image-rendering:optimizeQuality; fill-rule:evenodd; clip-rule:evenodd"
viewBox="0 0 696.27 150.11"
 xmlns:xlink="http://www.w3.org/1999/xlink"
 xmlns:xodm="http://www.corel.com/coreldraw/odm/2003">
 <defs>
  <style type="text/css">
   <![CDATA[
    .fil1 {fill:white}
    .fil0 {fill:white;fill-rule:nonzero}
   ]]>
  </style>
 </defs>
 <g id="Vrstva_x0020_1">
  <metadata id="CorelCorpID_0Corel-Layer"/>
  <g id="_2853963303328">
   <path class="fil0" d="M232.88 112.15c22.11,0 35.38,-8.85 35.38,-22.26 0,-11.84 -7.13,-18.26 -26.25,-20.4l-15.27 -1.85c-9.41,-1.14 -11.41,-2.71 -11.41,-6.42 0,-4.57 2.71,-6.42 13.41,-6.42 13.13,0 15.98,2.99 15.98,8.84l0 0.86 21.4 0 0 -0.43c0,-17.4 -13.27,-26.25 -36.67,-26.25 -24.53,0 -35.23,9.99 -35.23,22.54 0,11.99 7.98,18.41 22.25,19.98l20.12 2.42c8.42,1.14 10.56,2.28 10.56,6.28 0,4.28 -2.72,6.13 -14.13,6.13 -12.13,0 -16.12,-1.71 -16.12,-8.13l0 -1.28 -21.4 0 0 0.42c0,16.55 13.27,25.97 37.38,25.97zm57.78 22.83c17.98,0 27.54,-4.14 34.38,-19.12l35.38 -76.61 -23.82 0 -13.55 32.52 -5.71 16.98 -1.43 0 -5.99 -16.83 -15.12 -32.67 -24.26 0 34.96 71.76c-1.43,3.14 -3.71,4.56 -8.99,4.56l-17.55 0 0 19.41 11.7 0zm111 -22.83c22.11,0 35.38,-8.85 35.38,-22.26 0,-11.84 -7.14,-18.26 -26.25,-20.4l-15.27 -1.85c-9.41,-1.14 -11.41,-2.71 -11.41,-6.42 0,-4.57 2.71,-6.42 13.41,-6.42 13.12,0 15.98,2.99 15.98,8.84l0 0.86 21.4 0 0 -0.43c0,-17.4 -13.27,-26.25 -36.67,-26.25 -24.54,0 -35.24,9.99 -35.24,22.54 0,11.99 7.99,18.41 22.26,19.98l20.12 2.42c8.41,1.14 10.55,2.28 10.55,6.28 0,4.28 -2.71,6.13 -14.12,6.13 -12.13,0 -16.12,-1.71 -16.12,-8.13l0 -1.28 -21.4 0 0 0.42c0,16.55 13.27,25.97 37.38,25.97zm94.44 -1.43l0 -19.26 -12.84 0c-7.56,0 -10.27,-1.85 -10.27,-8.99l0 -25.53 23.11 0 0 -17.69 -23.11 0 0 -13.84 -21.4 0 0 13.84 -11.27 0 0 17.69 11.27 0 0 27.96c0,17.98 10.13,25.82 26.82,25.82l17.69 0zm29.39 0l0 -41.37c0,-8.99 3.43,-13.41 12.99,-13.41 8.7,0 11.84,3.42 11.84,11.27l0 7.42 21.4 0 0 -11.84c0,-13.99 -6.56,-24.97 -22.54,-24.97 -14.41,0 -21.97,8.85 -23.97,20.4l-1.29 0 0 -18.97 -19.83 0 0 71.47 21.4 0zm75.33 -78.75l0 -16.83 -21.4 0 0 16.83 21.4 0zm0 78.75l0 -71.47 -21.4 0 0 71.47 21.4 0zm30.82 0l18.4 -23.96 1.15 0 18.97 23.96 26.11 0 -28.53 -35.24 0 -1.28 28.53 -34.95 -25.82 0 -18.41 24.11 -1.14 0 -18.98 -24.11 -26.1 0 28.53 35.38 0 1.14 -28.53 34.95 25.82 0z"/>
   <g>
    <path class="fil1" d="M25.02 0l125.09 0 0 37.53 -150.11 0 0 -12.51c0,-13.76 11.26,-25.02 25.02,-25.02z"/>
    <path class="fil1" d="M0 37.53l75.06 37.53 0 37.53 -52.69 -26.39c-12.3,-6.16 -22.37,-23.79 -22.37,-39.18l0 -9.49z"/>
    <path class="fil1" d="M150.11 112.59l-75.05 -37.53 0 -37.53 52.68 26.38c12.31,6.16 22.37,23.8 22.37,39.19l0 9.49z"/>
    <path class="fil1" d="M0 112.59l150.11 0 0 12.5c0,13.76 -11.26,25.02 -25.02,25.02l-125.09 0 0 -37.52z"/>
    <path class="fil1" d="M0 112.59l150.11 0 0 12.5c0,13.76 -11.26,25.02 -25.02,25.02l-125.09 0 0 -37.52z"/>
   </g>
  </g>
 </g>
</svg>
