<?xml version="1.0" encoding="UTF-8"?>
<!DOCTYPE svg PUBLIC "-//W3C//DTD SVG 1.1//EN" "http://www.w3.org/Graphics/SVG/1.1/DTD/svg11.dtd">
<!-- Creator: CorelDRAW 2021 (64-Bit) -->
<svg xmlns="http://www.w3.org/2000/svg" xml:space="preserve" width="1322px" height="368px" version="1.1" style="shape-rendering:geometricPrecision; text-rendering:geometricPrecision; image-rendering:optimizeQuality; fill-rule:evenodd; clip-rule:evenodd"
viewBox="0 0 212.27 59.03"
 xmlns:xlink="http://www.w3.org/1999/xlink"
 xmlns:xodm="http://www.corel.com/coreldraw/odm/2003">
 <defs>
  <style type="text/css">
   <![CDATA[
    .fil1 {fill:#00D66B}
    .fil0 {fill:black;fill-rule:nonzero}
   ]]>
  </style>
 </defs>
 <g id="Vrstva_x0020_1">
  <metadata id="CorelCorpID_0Corel-Layer"/>
  <g id="_2853963340096">
   <path class="fil0" d="M137.09 54.94c3.32,0 5.78,-1.71 5.78,-4.2l0 -0.16 -1.71 0 0 0.16c0,1.74 -1.3,2.77 -4.1,2.77 -3.15,0 -4.53,-1.61 -4.62,-4.28l10.48 0c0.07,-0.32 0.12,-0.68 0.12,-1.11 0,-3.54 -2.48,-5.57 -5.98,-5.57 -3.83,0 -6.24,2.58 -6.24,6.19 0,3.79 2.44,6.2 6.27,6.2zm-0.05 -10.96c2.79,0 4.38,1.32 4.38,3.83 0,0.12 0,0.24 0,0.36l-8.98 0c0.12,-2.61 1.52,-4.19 4.6,-4.19zm9.97 10.71l0 -5.75c0,-3.06 1.52,-4.82 4.41,-4.82 2.72,0 3.9,1.42 3.9,3.88l0 6.69 1.71 0 0 -6.93c0,-2.82 -1.66,-5.21 -5.01,-5.21 -2.96,0 -4.65,1.95 -5.06,3.98l-0.12 0 0 -3.74 -1.54 0 0 11.9 1.71 0zm18.48 0.25c3.32,0 5.78,-1.71 5.78,-4.2l0 -0.16 -1.71 0 0 0.16c0,1.74 -1.3,2.77 -4.1,2.77 -3.15,0 -4.52,-1.61 -4.62,-4.28l10.48 0c0.07,-0.32 0.12,-0.68 0.12,-1.11 0,-3.54 -2.48,-5.57 -5.98,-5.57 -3.83,0 -6.23,2.58 -6.23,6.19 0,3.79 2.43,6.2 6.26,6.2zm-0.05 -10.96c2.79,0 4.38,1.32 4.38,3.83 0,0.12 0,0.24 0,0.36l-8.98 0c0.12,-2.61 1.52,-4.19 4.6,-4.19zm9.97 10.71l0 -6.45c0,-2.68 1.06,-4.19 3.47,-4.19 2.07,0 2.92,0.98 2.92,3.01l0 0.91 1.71 0 0 -1.18c0,-2.21 -1.21,-4.24 -3.95,-4.24 -2.48,0 -3.83,1.59 -4.19,3.5l-0.12 0 0 -3.26 -1.55 0 0 11.9 1.71 0zm15.18 -0.96c2.75,0 4.51,-1.35 4.99,-3.18l0.12 0 0 3.11c0,2.96 -1.21,3.9 -4.29,3.9 -2.65,0 -4.05,-0.82 -4.05,-2.91l-1.71 0c0,2.77 2.46,4.38 5.69,4.38 3.59,0 6.07,-1.54 6.07,-5.47l0 -10.77 -1.54 0 0 3.06 -0.12 0c-0.49,-2.12 -2.46,-3.3 -4.97,-3.3 -3.66,0 -5.9,2.34 -5.9,5.59 0,3.25 2.17,5.59 5.71,5.59zm-4 -5.59c0,-3.03 1.9,-4.07 4.58,-4.07 2.74,0 4.53,1.4 4.53,3.74l0 0.4c0,2.53 -1.71,4 -4.65,4 -2.58,0 -4.46,-1.03 -4.46,-4.07zm15.27 10.65c1.98,0 3.09,-0.6 3.96,-2.43l6.45 -13.57 -1.88 0 -3.3 7.06 -1.27 2.94 -0.15 0 -1.32 -2.91 -3.5 -7.09 -1.88 0 5.91 11.88 -0.58 1.21c-0.46,0.98 -0.92,1.34 -2.12,1.34l-1.81 0 0 1.57 1.49 0z"/>
   <path class="fil0" d="M71 34.19c6.74,0 10.78,-2.7 10.78,-6.78 0,-3.61 -2.17,-5.57 -8,-6.22l-4.65 -0.57c-2.87,-0.35 -3.48,-0.83 -3.48,-1.96 0,-1.39 0.82,-1.95 4.09,-1.95 4,0 4.87,0.91 4.87,2.69l0 0.26 6.52 0 0 -0.13c0,-5.3 -4.04,-8 -11.18,-8 -7.48,0 -10.74,3.04 -10.74,6.87 0,3.66 2.44,5.61 6.79,6.09l6.13 0.74c2.56,0.35 3.22,0.7 3.22,1.91 0,1.31 -0.83,1.88 -4.31,1.88 -3.7,0 -4.91,-0.53 -4.91,-2.48l0 -0.4 -6.53 0 0 0.13c0,5.05 4.05,7.92 11.4,7.92zm17.61 6.96c5.48,0 8.4,-1.26 10.49,-5.83l10.78 -23.35 -7.26 0 -4.13 9.91 -1.74 5.18 -0.44 0 -1.82 -5.13 -4.62 -9.96 -7.39 0 10.66 21.87c-0.44,0.96 -1.13,1.39 -2.74,1.39l-5.35 0 0 5.92 3.56 0zm33.84 -6.96c6.74,0 10.79,-2.7 10.79,-6.78 0,-3.61 -2.18,-5.57 -8,-6.22l-4.66 -0.57c-2.87,-0.35 -3.48,-0.83 -3.48,-1.96 0,-1.39 0.83,-1.95 4.09,-1.95 4,0 4.87,0.91 4.87,2.69l0 0.26 6.53 0 0 -0.13c0,-5.3 -4.05,-8 -11.18,-8 -7.48,0 -10.74,3.04 -10.74,6.87 0,3.66 2.43,5.61 6.78,6.09l6.13 0.74c2.57,0.35 3.22,0.7 3.22,1.91 0,1.31 -0.82,1.88 -4.3,1.88 -3.7,0 -4.92,-0.53 -4.92,-2.48l0 -0.4 -6.52 0 0 0.13c0,5.05 4.04,7.92 11.39,7.92zm28.8 -0.43l0 -5.88 -3.92 0c-2.3,0 -3.13,-0.56 -3.13,-2.74l0 -7.78 7.05 0 0 -5.39 -7.05 0 0 -4.22 -6.52 0 0 4.22 -3.44 0 0 5.39 3.44 0 0 8.52c0,5.48 3.08,7.88 8.17,7.88l5.4 0zm8.96 0l0 -12.62c0,-2.74 1.04,-4.09 3.95,-4.09 2.66,0 3.62,1.05 3.62,3.44l0 2.26 6.52 0 0 -3.61c0,-4.26 -2,-7.61 -6.87,-7.61 -4.4,0 -6.7,2.7 -7.31,6.22l-0.39 0 0 -5.78 -6.05 0 0 21.79 6.53 0zm22.96 -24.01l0 -5.14 -6.52 0 0 5.14 6.52 0zm0 24.01l0 -21.79 -6.52 0 0 21.79 6.52 0zm9.4 0l5.61 -7.31 0.35 0 5.78 7.31 7.96 0 -8.7 -10.75 0 -0.39 8.7 -10.65 -7.87 0 -5.61 7.35 -0.35 0 -5.79 -7.35 -7.96 0 8.7 10.78 0 0.35 -8.7 10.66 7.88 0z"/>
   <g>
    <path class="fil1" d="M7.63 0l38.13 0 0 11.44 -45.76 0 0 -3.81c0,-4.2 3.43,-7.63 7.63,-7.63z"/>
    <path class="fil1" d="M0 11.44l22.88 11.44 0 11.44 -16.06 -8.04c-3.75,-1.88 -6.82,-7.25 -6.82,-11.95l0 -2.89z"/>
    <path class="fil1" d="M45.76 34.32l-22.88 -11.44 0 -11.44 16.06 8.05c3.76,1.87 6.82,7.25 6.82,11.94l0 2.89z"/>
    <path class="fil1" d="M0 34.32l45.76 0 0 3.82c0,4.19 -3.43,7.62 -7.62,7.62l-38.14 0 0 -11.44z"/>
    <path class="fil1" d="M0 34.32l45.76 0 0 3.82c0,4.19 -3.43,7.62 -7.62,7.62l-38.14 0 0 -11.44z"/>
   </g>
  </g>
 </g>
</svg>
