<?xml version="1.0" encoding="UTF-8"?>
<!DOCTYPE svg PUBLIC "-//W3C//DTD SVG 1.1//EN" "http://www.w3.org/Graphics/SVG/1.1/DTD/svg11.dtd">
<!-- Creator: CorelDRAW 2021 (64-Bit) -->
<svg xmlns="http://www.w3.org/2000/svg" xml:space="preserve" width="1322px" height="342px" version="1.1" style="shape-rendering:geometricPrecision; text-rendering:geometricPrecision; image-rendering:optimizeQuality; fill-rule:evenodd; clip-rule:evenodd"
viewBox="0 0 277.42 71.8"
 xmlns:xlink="http://www.w3.org/1999/xlink"
 xmlns:xodm="http://www.corel.com/coreldraw/odm/2003">
 <defs>
  <style type="text/css">
   <![CDATA[
    .fil1 {fill:white}
    .fil0 {fill:white;fill-rule:nonzero}
   ]]>
  </style>
 </defs>
 <g id="Vrstva_x0020_1">
  <metadata id="CorelCorpID_0Corel-Layer"/>
  <g id="_2854066097392">
   <path class="fil0" d="M220.06 71.8c3.43,0 5.95,-1.8 6.7,-4.92l0.13 0 0 4.6 2.04 0 0 -21.09 -2.23 0 0 9.88 -0.16 0c-0.69,-2.67 -2.99,-4.66 -6.67,-4.66 -4.79,0 -7.56,3.37 -7.56,8.09 0,4.73 2.77,8.1 7.75,8.1zm-5.48 -8.1c0,-4.5 2.42,-6.01 5.98,-6.01 3.84,0 6.14,2.14 6.14,5.98l0 0.29c0,3.68 -2.42,5.79 -6.08,5.79 -3.65,0 -6.04,-1.54 -6.04,-6.05zm22.41 8.1c3.62,0 6.36,-1.64 7.28,-4.51l0.15 0 0 4.19 2.02 0 0 -9.73c0,-3.43 -2.02,-6.14 -6.74,-6.14 -4.78,0 -7.49,2.68 -7.49,5.95l0 0.13 2.23 0 0 -0.13c0,-2.73 1.77,-3.93 5.1,-3.93 3.4,0 4.73,1.2 4.73,4.22l0 1.19 -7.4 0.82c-2.9,0.32 -5.01,1.42 -5.01,3.97 0,2.52 2.08,3.97 5.13,3.97zm-2.89 -4.13c0,-1.6 1.13,-2.17 3.46,-2.39l6.71 -0.76 0 0.13c0,3.75 -2.99,5.41 -6.77,5.41 -2.36,0 -3.4,-0.81 -3.4,-2.39zm25.56 3.81l0 -2.05 -2.83 0c-2.27,0 -3.34,-0.59 -3.34,-2.77l0 -8.81 6.17 0 0 -1.92 -6.17 0 0 -3.72 -2.27 0 0 3.72 -2.77 0 0 1.92 2.77 0 0 8.69c0,3.65 1.99,4.94 5.07,4.94l3.37 0zm6.77 0.32c3.62,0 6.36,-1.64 7.27,-4.51l0.16 0 0 4.19 2.02 0 0 -9.73c0,-3.43 -2.02,-6.14 -6.74,-6.14 -4.79,0 -7.49,2.68 -7.49,5.95l0 0.13 2.23 0 0 -0.13c0,-2.73 1.76,-3.93 5.1,-3.93 3.4,0 4.72,1.2 4.72,4.22l0 1.19 -7.4 0.82c-2.89,0.32 -5,1.42 -5,3.97 0,2.52 2.08,3.97 5.13,3.97zm-2.9 -4.13c0,-1.6 1.14,-2.17 3.47,-2.39l6.7 -0.76 0 0.13c0,3.75 -2.99,5.41 -6.77,5.41 -2.36,0 -3.4,-0.81 -3.4,-2.39z"/>
   <path class="fil0" d="M92.79 44.68c8.81,0 14.09,-3.52 14.09,-8.86 0,-4.72 -2.84,-7.28 -10.45,-8.13l-6.09 -0.74c-3.75,-0.46 -4.54,-1.08 -4.54,-2.56 0,-1.82 1.08,-2.56 5.34,-2.56 5.23,0 6.37,1.2 6.37,3.53l0 0.34 8.52 0 0 -0.17c0,-6.94 -5.28,-10.46 -14.61,-10.46 -9.77,0 -14.04,3.98 -14.04,8.98 0,4.78 3.19,7.33 8.87,7.96l8.02 0.96c3.35,0.46 4.2,0.91 4.2,2.51 0,1.7 -1.08,2.44 -5.63,2.44 -4.83,0 -6.42,-0.68 -6.42,-3.24l0 -0.51 -8.53 0 0 0.17c0,6.59 5.29,10.34 14.9,10.34zm23.02 9.1c7.16,0 10.97,-1.65 13.7,-7.62l14.1 -30.52 -9.5 0 -5.4 12.96 -2.27 6.76 -0.57 0 -2.39 -6.71 -6.02 -13.01 -9.67 0 13.93 28.59c-0.57,1.25 -1.48,1.82 -3.58,1.82l-6.99 0 0 7.73 4.66 0zm44.22 -9.1c8.82,0 14.1,-3.52 14.1,-8.86 0,-4.72 -2.84,-7.28 -10.46,-8.13l-6.08 -0.74c-3.75,-0.46 -4.55,-1.08 -4.55,-2.56 0,-1.82 1.08,-2.56 5.35,-2.56 5.23,0 6.36,1.2 6.36,3.53l0 0.34 8.53 0 0 -0.17c0,-6.94 -5.29,-10.46 -14.61,-10.46 -9.78,0 -14.04,3.98 -14.04,8.98 0,4.78 3.18,7.33 8.87,7.96l8.01 0.96c3.36,0.46 4.21,0.91 4.21,2.51 0,1.7 -1.08,2.44 -5.63,2.44 -4.83,0 -6.42,-0.68 -6.42,-3.24l0 -0.51 -8.53 0 0 0.17c0,6.59 5.29,10.34 14.89,10.34zm37.64 -0.56l0 -7.68 -5.12 0c-3.01,0 -4.09,-0.74 -4.09,-3.58l0 -10.17 9.21 0 0 -7.05 -9.21 0 0 -5.52 -8.53 0 0 5.52 -4.49 0 0 7.05 4.49 0 0 11.14c0,7.16 4.04,10.29 10.69,10.29l7.05 0zm11.71 0l0 -16.49c0,-3.58 1.36,-5.34 5.17,-5.34 3.47,0 4.72,1.36 4.72,4.49l0 2.95 8.52 0 0 -4.71c0,-5.57 -2.61,-9.95 -8.98,-9.95 -5.74,0 -8.75,3.52 -9.55,8.13l-0.51 0 0 -7.56 -7.9 0 0 28.48 8.53 0zm30.01 -31.38l0 -6.71 -8.53 0 0 6.71 8.53 0zm0 31.38l0 -28.48 -8.53 0 0 28.48 8.53 0zm12.28 0l7.33 -9.55 0.46 0 7.56 9.55 10.4 0 -11.37 -14.04 0 -0.52 11.37 -13.92 -10.29 0 -7.33 9.6 -0.46 0 -7.56 -9.6 -10.4 0 11.37 14.09 0 0.46 -11.37 13.93 10.29 0z"/>
   <g>
    <path class="fil1" d="M9.97 0l49.84 0 0 14.95 -59.81 0 0 -4.98c0,-5.48 4.49,-9.97 9.97,-9.97z"/>
    <path class="fil1" d="M0 14.95l29.91 14.96 0 14.95 -21 -10.51c-4.9,-2.46 -8.91,-9.49 -8.91,-15.62l0 -3.78z"/>
    <path class="fil1" d="M59.81 44.86l-29.9 -14.95 0 -14.96 20.99 10.52c4.9,2.45 8.91,9.48 8.91,15.61l0 3.78z"/>
    <path class="fil1" d="M0 44.86l59.81 0 0 4.98c0,5.48 -4.49,9.97 -9.97,9.97l-49.84 0 0 -14.95z"/>
    <path class="fil1" d="M0 44.86l59.81 0 0 4.98c0,5.48 -4.49,9.97 -9.97,9.97l-49.84 0 0 -14.95z"/>
   </g>
  </g>
 </g>
</svg>
