<?xml version="1.0" encoding="UTF-8"?>
<!DOCTYPE svg PUBLIC "-//W3C//DTD SVG 1.1//EN" "http://www.w3.org/Graphics/SVG/1.1/DTD/svg11.dtd">
<!-- Creator: CorelDRAW 2021 (64-Bit) -->
<svg xmlns="http://www.w3.org/2000/svg" xml:space="preserve" width="827px" height="827px" version="1.1" style="shape-rendering:geometricPrecision; text-rendering:geometricPrecision; image-rendering:optimizeQuality; fill-rule:evenodd; clip-rule:evenodd"
viewBox="0 0 231.29 231.29"
 xmlns:xlink="http://www.w3.org/1999/xlink"
 xmlns:xodm="http://www.corel.com/coreldraw/odm/2003">
 <defs>
  <style type="text/css">
   <![CDATA[
    .fil1 {fill:#0077FF}
    .fil0 {fill:white}
   ]]>
  </style>
 </defs>
 <g id="Vrstva_x0020_1">
  <metadata id="CorelCorpID_0Corel-Layer"/>
  <circle class="fil0" cx="115.64" cy="115.64" r="115.64"/>
  <g id="_2853958519616">
   <path class="fil1" d="M72.39 50.76l108.14 0 0 32.44 -129.77 0 0 -10.81c0,-11.9 9.73,-21.63 21.63,-21.63z"/>
   <path class="fil1" d="M50.76 83.2l64.88 32.44 0 32.45 -45.54 -22.81c-10.64,-5.33 -19.34,-20.57 -19.34,-33.88l0 -8.2z"/>
   <path class="fil1" d="M180.53 148.09l-64.89 -32.45 0 -32.44 45.55 22.81c10.64,5.33 19.34,20.57 19.34,33.87l0 8.21z"/>
   <path class="fil1" d="M50.76 148.09l129.77 0 0 10.81c0,11.9 -9.73,21.63 -21.63,21.63l-108.14 0 0 -32.44z"/>
   <path class="fil1" d="M50.76 148.09l129.77 0 0 10.81c0,11.9 -9.73,21.63 -21.63,21.63l-108.14 0 0 -32.44z"/>
  </g>
 </g>
</svg>
