<?xml version="1.0" encoding="UTF-8"?>
<!DOCTYPE svg PUBLIC "-//W3C//DTD SVG 1.1//EN" "http://www.w3.org/Graphics/SVG/1.1/DTD/svg11.dtd">
<!-- Creator: CorelDRAW 2021 (64-Bit) -->
<svg xmlns="http://www.w3.org/2000/svg" xml:space="preserve" width="464px" height="464px" version="1.1" style="shape-rendering:geometricPrecision; text-rendering:geometricPrecision; image-rendering:optimizeQuality; fill-rule:evenodd; clip-rule:evenodd"
viewBox="0 0 285.63 285.63"
 xmlns:xlink="http://www.w3.org/1999/xlink"
 xmlns:xodm="http://www.corel.com/coreldraw/odm/2003">
 <defs>
  <style type="text/css">
   <![CDATA[
    .fil0 {fill:#00D66B}
   ]]>
  </style>
 </defs>
 <g id="Vrstva_x0020_1">
  <metadata id="CorelCorpID_0Corel-Layer"/>
  <g id="_2853537131808">
   <path class="fil0" d="M47.61 0l238.02 0 0 71.41 -285.63 0 0 -23.8c0,-26.19 21.42,-47.61 47.61,-47.61z"/>
   <path class="fil0" d="M0 71.41l142.82 71.41 0 71.41 -100.25 -50.21c-23.41,-11.72 -42.57,-45.27 -42.57,-74.56l0 -18.05z"/>
   <path class="fil0" d="M285.63 214.23l-142.81 -71.41 0 -71.41 100.25 50.2c23.41,11.73 42.56,45.28 42.56,74.56l0 18.06z"/>
   <path class="fil0" d="M0 214.23l285.63 0 0 23.8c0,26.18 -21.42,47.6 -47.6,47.6l-238.03 0 0 -71.4z"/>
   <path class="fil0" d="M0 214.23l285.63 0 0 23.8c0,26.18 -21.42,47.6 -47.6,47.6l-238.03 0 0 -71.4z"/>
  </g>
 </g>
</svg>
