<?xml version="1.0" encoding="UTF-8"?>
<!DOCTYPE svg PUBLIC "-//W3C//DTD SVG 1.1//EN" "http://www.w3.org/Graphics/SVG/1.1/DTD/svg11.dtd">
<!-- Creator: CorelDRAW 2021 (64-Bit) -->
<svg xmlns="http://www.w3.org/2000/svg" xml:space="preserve" width="464px" height="464px" version="1.1" style="shape-rendering:geometricPrecision; text-rendering:geometricPrecision; image-rendering:optimizeQuality; fill-rule:evenodd; clip-rule:evenodd"
viewBox="0 0 64.85 64.85"
 xmlns:xlink="http://www.w3.org/1999/xlink"
 xmlns:xodm="http://www.corel.com/coreldraw/odm/2003">
 <defs>
  <style type="text/css">
   <![CDATA[
    .fil0 {fill:#0077FF}
   ]]>
  </style>
 </defs>
 <g id="Vrstva_x0020_1">
  <metadata id="CorelCorpID_0Corel-Layer"/>
  <g id="_2853963321664">
   <path class="fil0" d="M10.81 0l54.04 0 0 16.21 -64.85 0 0 -5.4c0,-5.95 4.86,-10.81 10.81,-10.81z"/>
   <path class="fil0" d="M0 16.21l32.43 16.22 0 16.21 -22.77 -11.4c-5.31,-2.66 -9.66,-10.28 -9.66,-16.93l0 -4.1z"/>
   <path class="fil0" d="M64.85 48.64l-32.42 -16.21 0 -16.22 22.76 11.4c5.31,2.66 9.66,10.28 9.66,16.93l0 4.1z"/>
   <path class="fil0" d="M0 48.64l64.85 0 0 5.4c0,5.95 -4.86,10.81 -10.81,10.81l-54.04 0 0 -16.21z"/>
   <path class="fil0" d="M0 48.64l64.85 0 0 5.4c0,5.95 -4.86,10.81 -10.81,10.81l-54.04 0 0 -16.21z"/>
  </g>
 </g>
</svg>
