<?xml version="1.0" encoding="UTF-8"?>
<!DOCTYPE svg PUBLIC "-//W3C//DTD SVG 1.1//EN" "http://www.w3.org/Graphics/SVG/1.1/DTD/svg11.dtd">
<!-- Creator: CorelDRAW 2021 (64-Bit) -->
<svg xmlns="http://www.w3.org/2000/svg" xml:space="preserve" width="464px" height="464px" version="1.1" style="shape-rendering:geometricPrecision; text-rendering:geometricPrecision; image-rendering:optimizeQuality; fill-rule:evenodd; clip-rule:evenodd"
viewBox="0 0 34.76 34.76"
 xmlns:xlink="http://www.w3.org/1999/xlink"
 xmlns:xodm="http://www.corel.com/coreldraw/odm/2003">
 <defs>
  <style type="text/css">
   <![CDATA[
    .fil0 {fill:black}
   ]]>
  </style>
 </defs>
 <g id="Vrstva_x0020_1">
  <metadata id="CorelCorpID_0Corel-Layer"/>
  <g id="_2806844299056">
   <path class="fil0" d="M5.79 0l28.97 0 0 8.69 -34.76 0 0 -2.9c0,-3.18 2.61,-5.79 5.79,-5.79z"/>
   <path class="fil0" d="M0 8.69l17.38 8.69 0 8.69 -12.2 -6.11c-2.85,-1.43 -5.18,-5.51 -5.18,-9.07l0 -2.2z"/>
   <path class="fil0" d="M34.76 26.07l-17.38 -8.69 0 -8.69 12.2 6.11c2.85,1.43 5.18,5.51 5.18,9.07l0 2.2z"/>
   <path class="fil0" d="M0 26.07l34.76 0 0 2.9c0,3.18 -2.61,5.79 -5.79,5.79l-28.97 0 0 -8.69z"/>
   <path class="fil0" d="M0 26.07l34.76 0 0 2.9c0,3.18 -2.61,5.79 -5.79,5.79l-28.97 0 0 -8.69z"/>
  </g>
 </g>
</svg>
