<?xml version="1.0" encoding="UTF-8"?>
<!DOCTYPE svg PUBLIC "-//W3C//DTD SVG 1.1//EN" "http://www.w3.org/Graphics/SVG/1.1/DTD/svg11.dtd">
<!-- Creator: CorelDRAW 2021 (64-Bit) -->
<svg xmlns="http://www.w3.org/2000/svg" xml:space="preserve" width="464px" height="464px" version="1.1" style="shape-rendering:geometricPrecision; text-rendering:geometricPrecision; image-rendering:optimizeQuality; fill-rule:evenodd; clip-rule:evenodd"
viewBox="0 0 25.25 25.25"
 xmlns:xlink="http://www.w3.org/1999/xlink"
 xmlns:xodm="http://www.corel.com/coreldraw/odm/2003">
 <defs>
  <style type="text/css">
   <![CDATA[
    .fil0 {fill:white}
   ]]>
  </style>
 </defs>
 <g id="Vrstva_x0020_1">
  <metadata id="CorelCorpID_0Corel-Layer"/>
  <g id="_2853412671200">
   <path class="fil0" d="M4.21 0l21.04 0 0 6.31 -25.25 0 0 -2.1c0,-2.32 1.89,-4.21 4.21,-4.21z"/>
   <path class="fil0" d="M0 6.31l12.62 6.31 0 6.32 -8.86 -4.44c-2.07,-1.04 -3.76,-4 -3.76,-6.59l0 -1.6z"/>
   <path class="fil0" d="M25.25 18.94l-12.63 -6.32 0 -6.31 8.87 4.44c2.06,1.04 3.76,4 3.76,6.59l0 1.6z"/>
   <path class="fil0" d="M0 18.94l25.25 0 0 2.1c0,2.31 -1.9,4.21 -4.21,4.21l-21.04 0 0 -6.31z"/>
   <path class="fil0" d="M0 18.94l25.25 0 0 2.1c0,2.31 -1.9,4.21 -4.21,4.21l-21.04 0 0 -6.31z"/>
  </g>
 </g>
</svg>
