<?xml version="1.0" encoding="UTF-8"?>
<!DOCTYPE svg PUBLIC "-//W3C//DTD SVG 1.1//EN" "http://www.w3.org/Graphics/SVG/1.1/DTD/svg11.dtd">
<!-- Creator: CorelDRAW 2021 (64-Bit) -->
<svg xmlns="http://www.w3.org/2000/svg" xml:space="preserve" width="1322px" height="342px" version="1.1" style="shape-rendering:geometricPrecision; text-rendering:geometricPrecision; image-rendering:optimizeQuality; fill-rule:evenodd; clip-rule:evenodd"
viewBox="0 0 393.31 101.79"
 xmlns:xlink="http://www.w3.org/1999/xlink"
 xmlns:xodm="http://www.corel.com/coreldraw/odm/2003">
 <defs>
  <style type="text/css">
   <![CDATA[
    .fil1 {fill:#0077FF}
    .fil0 {fill:black;fill-rule:nonzero}
   ]]>
  </style>
 </defs>
 <g id="Vrstva_x0020_1">
  <metadata id="CorelCorpID_0Corel-Layer"/>
  <g id="_2853632015520">
   <path class="fil0" d="M311.99 101.79c4.86,0 8.43,-2.55 9.5,-6.96l0.18 0 0 6.51 2.9 0 0 -29.9 -3.17 0 0 14.01 -0.22 0c-0.98,-3.79 -4.24,-6.6 -9.46,-6.6 -6.79,0 -10.72,4.77 -10.72,11.47 0,6.69 3.93,11.47 10.99,11.47zm-7.77 -11.47c0,-6.39 3.44,-8.53 8.48,-8.53 5.44,0 8.7,3.04 8.7,8.48l0 0.4c0,5.23 -3.43,8.22 -8.61,8.22 -5.18,0 -8.57,-2.19 -8.57,-8.57zm31.78 11.47c5.13,0 9.02,-2.32 10.31,-6.38l0.22 0 0 5.93 2.86 0 0 -13.79c0,-4.86 -2.86,-8.7 -9.55,-8.7 -6.79,0 -10.63,3.79 -10.63,8.43l0 0.18 3.17 0 0 -0.18c0,-3.88 2.5,-5.58 7.23,-5.58 4.82,0 6.7,1.7 6.7,5.98l0 1.7 -10.49 1.16c-4.11,0.45 -7.1,2.01 -7.1,5.62 0,3.58 2.95,5.63 7.28,5.63zm-4.11 -5.85c0,-2.27 1.61,-3.08 4.91,-3.39l9.51 -1.07 0 0.18c0,5.31 -4.24,7.67 -9.6,7.67 -3.34,0 -4.82,-1.16 -4.82,-3.39zm36.25 5.4l0 -2.9 -4.02 0c-3.21,0 -4.73,-0.85 -4.73,-3.93l0 -12.49 8.75 0 0 -2.73 -8.75 0 0 -5.26 -3.22 0 0 5.26 -3.92 0 0 2.73 3.92 0 0 12.31c0,5.18 2.82,7.01 7.19,7.01l4.78 0zm9.59 0.45c5.14,0 9.02,-2.32 10.31,-6.38l0.23 0 0 5.93 2.85 0 0 -13.79c0,-4.86 -2.85,-8.7 -9.55,-8.7 -6.78,0 -10.62,3.79 -10.62,8.43l0 0.18 3.17 0 0 -0.18c0,-3.88 2.5,-5.58 7.23,-5.58 4.82,0 6.69,1.7 6.69,5.98l0 1.7 -10.49 1.16c-4.1,0.45 -7.09,2.01 -7.09,5.62 0,3.58 2.94,5.63 7.27,5.63zm-4.1 -5.85c0,-2.27 1.6,-3.08 4.91,-3.39l9.5 -1.07 0 0.18c0,5.31 -4.24,7.67 -9.59,7.67 -3.35,0 -4.82,-1.16 -4.82,-3.39z"/>
   <path class="fil0" d="M131.55 63.35c12.49,0 19.99,-4.99 19.99,-12.57 0,-6.69 -4.03,-10.32 -14.83,-11.52l-8.63 -1.05c-5.32,-0.65 -6.44,-1.53 -6.44,-3.63 0,-2.58 1.53,-3.63 7.57,-3.63 7.42,0 9.03,1.7 9.03,5l0 0.48 12.09 0 0 -0.24c0,-9.83 -7.5,-14.83 -20.72,-14.83 -13.86,0 -19.9,5.64 -19.9,12.74 0,6.77 4.51,10.39 12.57,11.28l11.36 1.37c4.76,0.64 5.97,1.29 5.97,3.55 0,2.41 -1.53,3.46 -7.98,3.46 -6.85,0 -9.11,-0.97 -9.11,-4.59l0 -0.73 -12.09 0 0 0.24c0,9.35 7.5,14.67 21.12,14.67zm32.64 12.9c10.15,0 15.55,-2.34 19.42,-10.8l19.99 -43.28 -13.46 0 -7.66 18.37 -3.22 9.59 -0.81 0 -3.38 -9.5 -8.54 -18.46 -13.7 0 19.74 40.54c-0.81,1.77 -2.1,2.58 -5.08,2.58l-9.91 0 0 10.96 6.61 0zm62.7 -12.9c12.49,0 19.99,-4.99 19.99,-12.57 0,-6.69 -4.03,-10.32 -14.83,-11.52l-8.63 -1.05c-5.32,-0.65 -6.44,-1.53 -6.44,-3.63 0,-2.58 1.53,-3.63 7.57,-3.63 7.42,0 9.03,1.7 9.03,5l0 0.48 12.09 0 0 -0.24c0,-9.83 -7.5,-14.83 -20.72,-14.83 -13.86,0 -19.9,5.64 -19.9,12.74 0,6.77 4.51,10.39 12.57,11.28l11.36 1.37c4.76,0.64 5.97,1.29 5.97,3.55 0,2.41 -1.53,3.46 -7.98,3.46 -6.85,0 -9.11,-0.97 -9.11,-4.59l0 -0.73 -12.09 0 0 0.24c0,9.35 7.5,14.67 21.12,14.67zm53.35 -0.8l0 -10.88 -7.25 0c-4.27,0 -5.81,-1.05 -5.81,-5.08l0 -14.43 13.06 0 0 -9.99 -13.06 0 0 -7.82 -12.08 0 0 7.82 -6.37 0 0 9.99 6.37 0 0 15.8c0,10.15 5.72,14.59 15.15,14.59l9.99 0zm16.6 0l0 -23.38c0,-5.07 1.94,-7.57 7.34,-7.57 4.91,0 6.68,1.93 6.68,6.37l0 4.19 12.09 0 0 -6.69c0,-7.9 -3.7,-14.11 -12.73,-14.11 -8.14,0 -12.41,5 -13.54,11.53l-0.72 0 0 -10.72 -11.21 0 0 40.38 12.09 0zm42.55 -44.49l0 -9.51 -12.08 0 0 9.51 12.08 0zm0 44.49l0 -40.38 -12.08 0 0 40.38 12.08 0zm17.41 0l10.4 -13.54 0.64 0 10.72 13.54 14.75 0 -16.12 -19.91 0 -0.73 16.12 -19.74 -14.59 0 -10.39 13.62 -0.65 0 -10.72 -13.62 -14.74 0 16.11 19.99 0 0.64 -16.11 19.75 14.58 0z"/>
   <g>
    <path class="fil1" d="M14.13 0l70.67 0 0 21.2 -84.8 0 0 -7.07c0,-7.77 6.36,-14.13 14.13,-14.13z"/>
    <path class="fil1" d="M0 21.2l42.4 21.2 0 21.2 -29.76 -14.91c-6.95,-3.48 -12.64,-13.44 -12.64,-22.13l0 -5.36z"/>
    <path class="fil1" d="M84.8 63.6l-42.4 -21.2 0 -21.2 29.76 14.9c6.95,3.48 12.64,13.44 12.64,22.14l0 5.36z"/>
    <path class="fil1" d="M0 63.6l84.8 0 0 7.06c0,7.78 -6.36,14.14 -14.14,14.14l-70.66 0 0 -21.2z"/>
    <path class="fil1" d="M0 63.6l84.8 0 0 7.06c0,7.78 -6.36,14.14 -14.14,14.14l-70.66 0 0 -21.2z"/>
   </g>
  </g>
 </g>
</svg>
